TITLE "MultiFile"
PERFORMER "The Multis"
FILE "MultiFile - 0 - Uno.wav" WAVE
 TRACK 01 AUDIO
    TITLE "Uno"
    INDEX 01 00:00:00
  TRACK 02 AUDIO
    TITLE "Dos"
    INDEX 00 02:47:74
FILE "MultiFile - 1 - Dos.wav" WAVE
     INDEX 01 00:00:00
  TRACK 03 AUDIO
    TITLE "Tres"
    INDEX 00 03:10:74
FILE "MultiFile - 2 - Tres.wav" WAVE
    INDEX 01 00:00:00
